<?xml version="1.0" encoding="utf-8"?>
<!-- Generator: Adobe Illustrator 16.0.0, SVG Export Plug-In . SVG Version: 6.00 Build 0)  -->
<!DOCTYPE svg PUBLIC "-//W3C//DTD SVG 1.1//EN" "http://www.w3.org/Graphics/SVG/1.1/DTD/svg11.dtd">
<svg version="1.1" xmlns="http://www.w3.org/2000/svg" xmlns:xlink="http://www.w3.org/1999/xlink" x="0px" y="0px" width="500px"
	 height="500px" viewBox="0 0 500 500" enable-background="new 0 0 500 500" xml:space="preserve">
<g id="Layer_3">
	<g>
		<g>
			<g>
				<path fill="#009444" stroke="#FFFFFF" stroke-width="2" stroke-miterlimit="10" d="M391.695,57.418
					c11.167,10.185,13.174,26.167,13.174,26.167s-16.098-0.533-27.265-10.717c-11.167-10.186-13.175-26.167-13.175-26.167
					S380.528,47.233,391.695,57.418z"/>
				<g>
					<g>
						<path fill="#009444" stroke="#FFFFFF" stroke-width="2" stroke-miterlimit="10" d="M313.167,432.727
							c-9.615,12.332-10.194,26.899-10.064,26.946c-0.037,0.184,20.174-5.469,29.242-19.073c9.071-13.428,4.652-27.352,4.785-27.312
							C337.078,413.423,322.767,420.505,313.167,432.727z"/>
						<path fill="#009444" stroke="#FFFFFF" stroke-width="2" stroke-miterlimit="10" d="M327.321,475.438
							c-17.738-3.013-24.354-16.427-24.352-16.306c0.21,0.065,19.218-5.419,35.595-3.496c16.543,2.017,26.261,12.289,26.261,12.397
							C365.058,468.088,345.254,478.522,327.321,475.438z"/>
					</g>
					<g>
						<path fill="#009444" stroke="#FFFFFF" stroke-width="2" stroke-miterlimit="10" d="M348.233,417.318
							c-6.605,13.526-4.235,27.668-4.112,27.693c-0.016,0.187,17.748-8.632,23.73-23.313c6.001-14.517-0.826-27.241-0.703-27.223
							C367.118,394.614,354.842,403.907,348.233,417.318z"/>
						<path fill="#009444" stroke="#FFFFFF" stroke-width="2" stroke-miterlimit="10" d="M369.896,456.19
							c-17.242,0.056-26.019-11.795-26.004-11.677c0.195,0.028,16.856-8.429,32.754-9.334c16.055-0.844,27.303,7.441,27.316,7.548
							C404.181,442.744,387.324,456.177,369.896,456.19z"/>
					</g>
					<g>
						<path fill="#009444" stroke="#FFFFFF" stroke-width="2" stroke-miterlimit="10" d="M378.507,396.48
							c-3.747,14.221,1.244,27.483,1.358,27.488c0.007,0.186,15.219-11.351,18.264-26.607c3.077-15.093-5.811-26.27-5.696-26.27
							C392.423,371.231,382.274,382.373,378.507,396.48z"/>
						<path fill="#009444" stroke="#FFFFFF" stroke-width="2" stroke-miterlimit="10" d="M406.554,430.409
							c-16.459,2.982-27.028-6.994-27.003-6.883c0.18,0,14.402-11.006,29.533-14.609c15.279-3.572,27.677,2.517,27.703,2.622
							C436.993,411.52,423.191,427.439,406.554,430.409z"/>
					</g>
					<g>
						<path fill="#009444" stroke="#FFFFFF" stroke-width="2" stroke-miterlimit="10" d="M403.776,371.071
							c-1.049,14.449,6.227,26.444,6.331,26.43c0.028,0.182,12.588-13.625,12.849-28.986c0.31-15.207-10.285-24.537-10.179-24.556
							C412.792,344.099,404.86,356.727,403.776,371.071z"/>
						<path fill="#009444" stroke="#FFFFFF" stroke-width="2" stroke-miterlimit="10" d="M437.054,399.144
							c-15.377,5.735-27.369-2.124-27.33-2.017c0.163-0.028,11.858-13.151,25.926-19.292c14.205-6.131,27.365-2.38,27.402-2.279
							C463.242,375.502,452.599,393.394,437.054,399.144z"/>
					</g>
					<g>
						<path fill="#009444" stroke="#FFFFFF" stroke-width="2" stroke-miterlimit="10" d="M423.828,341.947
							c1.491,14.261,10.695,24.644,10.793,24.613c0.051,0.177,9.853-15.446,7.487-30.481c-2.298-14.892-14.228-22.137-14.13-22.172
							C428.013,314.045,422.389,327.789,423.828,341.947z"/>
						<path fill="#009444" stroke="#FFFFFF" stroke-width="2" stroke-miterlimit="10" d="M461.153,363.446
							c-13.993,8.276-27.025,2.72-26.972,2.819c0.146-0.056,9.22-14.863,21.925-23.334c12.832-8.485,26.351-7.157,26.402-7.066
							C482.681,335.786,475.301,355.129,461.153,363.446z"/>
					</g>
					<g>
						<path fill="#009444" stroke="#FFFFFF" stroke-width="2" stroke-miterlimit="10" d="M438.452,309.979
							c3.861,13.677,14.638,22.179,14.724,22.135c0.074,0.165,7.015-16.822,2.19-31.131c-4.737-14.18-17.628-19.169-17.537-19.22
							C437.885,281.895,434.661,296.391,438.452,309.979z"/>
						<path fill="#009444" stroke="#FFFFFF" stroke-width="2" stroke-miterlimit="10" d="M478.604,324.372
							c-12.298,10.567-25.973,7.44-25.909,7.529c0.132-0.077,6.494-16.138,17.526-26.705c11.148-10.597,24.618-11.716,24.681-11.634
							C495.06,293.457,491.05,313.737,478.604,324.372z"/>
					</g>
					<g>
						<path fill="#009444" stroke="#FFFFFF" stroke-width="2" stroke-miterlimit="10" d="M447.435,276.028
							c6.06,12.747,18.029,19.148,18.108,19.092c0.098,0.151,4.072-17.744-3.038-30.97c-7.003-13.109-20.466-15.727-20.385-15.79
							C442.199,248.48,441.462,263.361,447.435,276.028z"/>
						<path fill="#009444" stroke="#FFFFFF" stroke-width="2" stroke-miterlimit="10" d="M489.163,282.979
							c-10.288,12.574-24.204,11.942-24.125,12.019c0.111-0.093,3.675-16.984,12.719-29.365
							c9.155-12.431,22.15-15.961,22.227-15.889C500.123,249.617,499.588,270.318,489.163,282.979z"/>
					</g>
					<g>
						<path fill="#009444" stroke="#FFFFFF" stroke-width="2" stroke-miterlimit="10" d="M450.563,240.969
							c8.076,11.502,20.861,15.649,20.932,15.581c0.123,0.134,1.023-18.219-8.192-30.037c-9.092-11.718-22.729-11.907-22.657-11.981
							C440.748,214.639,442.59,229.539,450.563,240.969z"/>
						<path fill="#009444" stroke="#FFFFFF" stroke-width="2" stroke-miterlimit="10" d="M492.585,240.332
							c-7.955,14.258-21.697,16.121-21.606,16.188c0.096-0.109,0.766-17.396,7.504-31.281c6.836-13.95,18.929-19.795,19.02-19.736
							C497.625,205.358,500.668,225.971,492.585,240.332z"/>
					</g>
					<g>
						<path fill="#009444" stroke="#FFFFFF" stroke-width="2" stroke-miterlimit="10" d="M447.621,205.677
							c9.904,9.971,23.12,11.772,23.181,11.695c0.146,0.115-2.133-18.238-13.268-28.361c-10.997-10.042-24.399-7.808-24.337-7.891
							C433.323,181.211,437.836,195.759,447.621,205.677z"/>
						<path fill="#009444" stroke="#FFFFFF" stroke-width="2" stroke-miterlimit="10" d="M488.624,197.497
							c-5.294,15.581-18.438,19.887-18.334,19.938c0.077-0.122-2.237-17.375,1.87-32.412c4.191-15.115,14.939-23.118,15.045-23.072
							C487.31,161.79,494.038,181.795,488.624,197.497z"/>
					</g>
					<g>
						<path fill="#009444" stroke="#FFFFFF" stroke-width="2" stroke-miterlimit="10" d="M438.396,171.027
							c11.544,8.2,24.783,7.618,24.832,7.534c0.172,0.093-5.39-17.802-18.255-25.979c-12.706-8.117-25.457-3.525-25.406-3.616
							C419.719,149.039,426.989,162.862,438.396,171.027z"/>
						<path fill="#009444" stroke="#FFFFFF" stroke-width="2" stroke-miterlimit="10" d="M477.033,155.541
							c-2.303,16.505-14.412,23.139-14.291,23.176c0.056-0.132-5.331-16.924-4.189-32.726c1.215-15.892,10.165-25.834,10.286-25.804
							C468.925,120.014,479.443,138.899,477.033,155.541z"/>
					</g>
					<g>
						<path fill="#009444" stroke="#FFFFFF" stroke-width="2" stroke-miterlimit="10" d="M422.675,137.9
							c12.981,6.225,25.837,3.286,25.874,3.195c0.198,0.067-8.752-16.911-23.152-22.927c-14.222-5.979-25.894,0.845-25.852,0.749
							C399.722,118.966,409.847,131.694,422.675,137.9z"/>
						<path fill="#009444" stroke="#FFFFFF" stroke-width="2" stroke-miterlimit="10" d="M457.569,115.536
							c1.03,16.998-9.602,25.781-9.469,25.8c0.039-0.138-8.514-16.041-10.677-32.181c-2.101-16.241,4.592-27.847,4.727-27.834
							C442.218,81.14,456.632,98.389,457.569,115.536z"/>
					</g>
					<g>
						<path fill="#009444" stroke="#FFFFFF" stroke-width="2" stroke-miterlimit="10" d="M400.236,107.182
							c14.219,4.077,26.265-1.133,26.293-1.228c0.223,0.038-12.224-15.564-27.952-19.239c-15.53-3.666-25.684,5.206-25.655,5.104
							C373.124,91.844,386.191,103.102,400.236,107.182z"/>
						<path fill="#009444" stroke="#FFFFFF" stroke-width="2" stroke-miterlimit="10" d="M429.977,78.561
							c4.715,17.018-3.989,27.714-3.838,27.714c0.016-0.141-11.791-14.726-17.604-30.744c-5.759-16.125-1.796-29.057-1.649-29.063
							C406.935,46.281,425.348,61.382,429.977,78.561z"/>
					</g>
				</g>
				<g>
					<path fill="#009444" stroke="#FFFFFF" stroke-width="2" stroke-miterlimit="10" d="M246.249,464.141l0.283-3.119
						c25.845,2.34,51.611-0.539,76.582-8.557c24.327-7.812,46.853-20.146,66.949-36.658c41.7-34.269,68.596-83.166,75.727-137.693
						c5.839-44.65,2.843-84.438-8.903-118.259c-12.616-36.319-35.081-64.738-66.772-84.469l1.656-2.658
						c32.314,20.119,55.219,49.086,68.074,86.099c11.909,34.286,14.954,74.557,9.051,119.693
						c-7.236,55.317-34.524,104.933-76.846,139.706c-20.401,16.766-43.273,29.289-67.978,37.221
						C298.699,463.595,272.517,466.518,246.249,464.141z"/>
				</g>
			</g>
			<g>
				<path fill="#009444" stroke="#FFFFFF" stroke-width="2" stroke-miterlimit="10" d="M109.251,57.418
					C98.084,67.603,96.077,83.585,96.077,83.585s16.1-0.533,27.266-10.717c11.167-10.186,13.174-26.167,13.174-26.167
					S120.418,47.233,109.251,57.418z"/>
				<g>
					<g>
						<path fill="#009444" stroke="#FFFFFF" stroke-width="2" stroke-miterlimit="10" d="M187.779,432.727
							c9.615,12.332,10.194,26.899,10.064,26.946c0.038,0.184-20.171-5.469-29.241-19.073c-9.073-13.428-4.654-27.352-4.787-27.312
							C163.868,413.423,178.179,420.505,187.779,432.727z"/>
						<path fill="#009444" stroke="#FFFFFF" stroke-width="2" stroke-miterlimit="10" d="M173.625,475.438
							c17.739-3.013,24.355-16.427,24.351-16.306c-0.208,0.065-19.216-5.419-35.594-3.496c-16.542,2.017-26.259,12.289-26.26,12.397
							C135.888,468.088,155.692,478.522,173.625,475.438z"/>
					</g>
					<g>
						<path fill="#009444" stroke="#FFFFFF" stroke-width="2" stroke-miterlimit="10" d="M152.713,417.318
							c6.607,13.526,4.235,27.668,4.113,27.693c0.016,0.187-17.75-8.632-23.73-23.313c-6-14.517,0.827-27.241,0.702-27.223
							C133.828,394.614,146.103,403.907,152.713,417.318z"/>
						<path fill="#009444" stroke="#FFFFFF" stroke-width="2" stroke-miterlimit="10" d="M131.051,456.19
							c17.244,0.056,26.019-11.795,26.005-11.677c-0.194,0.028-16.855-8.429-32.755-9.334c-16.054-0.844-27.302,7.441-27.315,7.548
							C96.764,442.744,113.623,456.177,131.051,456.19z"/>
					</g>
					<g>
						<path fill="#009444" stroke="#FFFFFF" stroke-width="2" stroke-miterlimit="10" d="M122.438,396.48
							c3.75,14.221-1.245,27.483-1.357,27.488c-0.006,0.186-15.219-11.351-18.262-26.607c-3.079-15.093,5.81-26.27,5.695-26.27
							C108.523,371.231,118.671,382.373,122.438,396.48z"/>
						<path fill="#009444" stroke="#FFFFFF" stroke-width="2" stroke-miterlimit="10" d="M94.394,430.409
							c16.458,2.982,27.028-6.994,27.002-6.883c-0.178,0-14.401-11.006-29.533-14.609c-15.278-3.572-27.678,2.517-27.703,2.622
							C63.953,411.52,77.757,427.439,94.394,430.409z"/>
					</g>
					<g>
						<path fill="#009444" stroke="#FFFFFF" stroke-width="2" stroke-miterlimit="10" d="M97.17,371.071
							c1.05,14.449-6.224,26.444-6.331,26.43c-0.029,0.182-12.589-13.625-12.848-28.986c-0.311-15.207,10.286-24.537,10.177-24.556
							C88.157,344.099,96.088,356.727,97.17,371.071z"/>
						<path fill="#009444" stroke="#FFFFFF" stroke-width="2" stroke-miterlimit="10" d="M63.893,399.144
							c15.377,5.735,27.368-2.124,27.33-2.017c-0.163-0.028-11.857-13.151-25.926-19.292c-14.205-6.131-27.364-2.38-27.403-2.279
							C37.706,375.502,48.349,393.394,63.893,399.144z"/>
					</g>
					<g>
						<path fill="#009444" stroke="#FFFFFF" stroke-width="2" stroke-miterlimit="10" d="M77.117,341.947
							c-1.489,14.261-10.694,24.644-10.79,24.613c-0.051,0.177-9.854-15.446-7.488-30.481c2.298-14.892,14.229-22.137,14.13-22.172
							C72.935,314.045,78.556,327.789,77.117,341.947z"/>
						<path fill="#009444" stroke="#FFFFFF" stroke-width="2" stroke-miterlimit="10" d="M39.795,363.446
							c13.993,8.276,27.023,2.72,26.971,2.819c-0.145-0.056-9.222-14.863-21.924-23.334c-12.833-8.485-26.352-7.157-26.402-7.066
							C18.265,335.786,25.645,355.129,39.795,363.446z"/>
					</g>
					<g>
						<path fill="#009444" stroke="#FFFFFF" stroke-width="2" stroke-miterlimit="10" d="M62.493,309.979
							c-3.859,13.677-14.635,22.179-14.723,22.135c-0.073,0.165-7.015-16.822-2.19-31.131c4.738-14.18,17.629-19.169,17.539-19.22
							C63.061,281.895,66.288,296.391,62.493,309.979z"/>
						<path fill="#009444" stroke="#FFFFFF" stroke-width="2" stroke-miterlimit="10" d="M22.344,324.372
							c12.296,10.567,25.971,7.44,25.907,7.529c-0.129-0.077-6.493-16.138-17.525-26.705C19.577,294.6,6.109,293.48,6.044,293.563
							C5.888,293.457,9.898,313.737,22.344,324.372z"/>
					</g>
					<g>
						<path fill="#009444" stroke="#FFFFFF" stroke-width="2" stroke-miterlimit="10" d="M53.511,276.028
							c-6.058,12.747-18.028,19.148-18.108,19.092c-0.097,0.151-4.07-17.744,3.039-30.97c7.004-13.109,20.467-15.727,20.386-15.79
							C58.748,248.48,59.487,263.361,53.511,276.028z"/>
						<path fill="#009444" stroke="#FFFFFF" stroke-width="2" stroke-miterlimit="10" d="M11.785,282.979
							c10.287,12.574,24.204,11.942,24.125,12.019c-0.112-0.093-3.676-16.984-12.72-29.365
							c-9.152-12.431-22.148-15.961-22.226-15.889C0.823,249.617,1.359,270.318,11.785,282.979z"/>
					</g>
					<g>
						<path fill="#009444" stroke="#FFFFFF" stroke-width="2" stroke-miterlimit="10" d="M50.384,240.969
							c-8.075,11.502-20.863,15.649-20.932,15.581c-0.122,0.134-1.021-18.219,8.192-30.037
							c9.093-11.718,22.729-11.907,22.658-11.981C60.199,214.639,58.357,229.539,50.384,240.969z"/>
						<path fill="#009444" stroke="#FFFFFF" stroke-width="2" stroke-miterlimit="10" d="M8.362,240.332
							c7.955,14.258,21.698,16.121,21.605,16.188c-0.094-0.109-0.765-17.396-7.503-31.281c-6.836-13.95-18.928-19.795-19.019-19.736
							C3.323,205.358,0.278,225.971,8.362,240.332z"/>
					</g>
					<g>
						<path fill="#009444" stroke="#FFFFFF" stroke-width="2" stroke-miterlimit="10" d="M53.325,205.677
							c-9.903,9.971-23.12,11.772-23.179,11.695c-0.147,0.115,2.132-18.238,13.267-28.361c10.997-10.042,24.397-7.808,24.336-7.891
							C67.624,181.211,63.111,195.759,53.325,205.677z"/>
						<path fill="#009444" stroke="#FFFFFF" stroke-width="2" stroke-miterlimit="10" d="M12.322,197.497
							c5.296,15.581,18.439,19.887,18.333,19.938c-0.074-0.122,2.238-17.375-1.868-32.412c-4.192-15.115-14.94-23.118-15.044-23.072
							C13.639,161.79,6.909,181.795,12.322,197.497z"/>
					</g>
					<g>
						<path fill="#009444" stroke="#FFFFFF" stroke-width="2" stroke-miterlimit="10" d="M62.55,171.027
							c-11.543,8.2-24.783,7.618-24.833,7.534c-0.172,0.093,5.392-17.802,18.256-25.979c12.708-8.117,25.458-3.525,25.407-3.616
							C81.228,149.039,73.957,162.862,62.55,171.027z"/>
						<path fill="#009444" stroke="#FFFFFF" stroke-width="2" stroke-miterlimit="10" d="M23.912,155.541
							c2.303,16.505,14.413,23.139,14.294,23.176c-0.057-0.132,5.329-16.924,4.189-32.726
							c-1.215-15.892-10.167-25.834-10.285-25.804C32.022,120.014,21.503,138.899,23.912,155.541z"/>
					</g>
					<g>
						<path fill="#009444" stroke="#FFFFFF" stroke-width="2" stroke-miterlimit="10" d="M78.273,137.9
							c-12.982,6.225-25.837,3.286-25.875,3.195c-0.198,0.067,8.754-16.911,23.152-22.927c14.222-5.979,25.893,0.845,25.853,0.749
							C101.224,118.966,91.102,131.694,78.273,137.9z"/>
						<path fill="#009444" stroke="#FFFFFF" stroke-width="2" stroke-miterlimit="10" d="M43.378,115.536
							c-1.032,16.998,9.602,25.781,9.468,25.8c-0.038-0.138,8.513-16.041,10.675-32.181c2.102-16.241-4.592-27.847-4.726-27.834
							C58.729,81.14,44.315,98.389,43.378,115.536z"/>
					</g>
					<g>
						<path fill="#009444" stroke="#FFFFFF" stroke-width="2" stroke-miterlimit="10" d="M100.709,107.182
							c-14.216,4.077-26.264-1.133-26.292-1.228c-0.224,0.038,12.224-15.564,27.951-19.239c15.533-3.666,25.686,5.206,25.657,5.104
							C127.821,91.844,114.756,103.102,100.709,107.182z"/>
						<path fill="#009444" stroke="#FFFFFF" stroke-width="2" stroke-miterlimit="10" d="M70.969,78.561
							c-4.713,17.018,3.99,27.714,3.84,27.714c-0.017-0.141,11.79-14.726,17.6-30.744c5.761-16.125,1.797-29.057,1.65-29.063
							C94.011,46.281,75.599,61.382,70.969,78.561z"/>
					</g>
				</g>
				<g>
					<path fill="#009444" stroke="#FFFFFF" stroke-width="2" stroke-miterlimit="10" d="M254.697,464.141l-0.281-3.119
						c-25.846,2.34-51.612-0.539-76.581-8.557c-24.328-7.812-46.853-20.146-66.949-36.658
						c-41.704-34.269-68.596-83.166-75.727-137.693c-5.84-44.65-2.844-84.438,8.903-118.259
						c12.614-36.319,35.079-64.738,66.771-84.469l-1.657-2.658c-32.314,20.119-55.218,49.086-68.074,86.099
						c-11.91,34.286-14.954,74.557-9.051,119.693c7.236,55.317,34.525,104.933,76.845,139.706
						c20.403,16.766,43.274,29.289,67.98,37.221C202.249,463.595,228.431,466.518,254.697,464.141z"/>
				</g>
			</g>
		</g>
		<polygon fill="#009444" stroke="#FFFFFF" stroke-width="2" stroke-miterlimit="10" points="249.545,448.185 225.874,465.592 
			249.545,483 273.217,465.592 		"/>
	</g>
	<g id="Layer_2">
		<g>
			<path fill="#C49A6C" stroke="#FFFFFF" stroke-miterlimit="10" d="M83.397,362.199c2.699-12.915,16.603-30.342,31.588-26.407
				c0.005,0.591,0.296,1.153,0.88,1.518c-6.595,2.695-12.675,7.747-15.605,14.083c-0.458,0.978,0.999,1.72,1.628,0.905
				c4.785-6.262,9.611-10.762,16.56-13.809c3.546,1.572,7.108,3.153,10.68,4.716c-6.75,1.829-13.905,7.074-14.451,14.037
				c-0.046,0.728,0.959,1.216,1.396,0.543c2.137-3.229,3.424-6.495,6.484-9.072c2.692-2.289,5.821-3.682,9.222-4.36
				c3.049,1.341,6.104,2.662,9.171,4.011c-5.721,3.269-11.309,8.67-12.929,14.864c-0.236,0.909,0.972,1.79,1.584,0.87
				c1.832-2.8,3.209-5.794,5.435-8.344c2.319-2.686,5.011-4.721,8.007-6.479c2.49,1.063,4.983,2.17,7.471,3.234
				c-5.283,4.517-9.413,10.404-11.712,16.984c-0.479,1.384,1.559,2.192,2.129,0.827c2.768-6.674,6.439-12.089,11.577-16.94
				c3.141,1.357,6.281,2.713,9.404,4.063c-5.114,1.053-10.334,4.498-10.971,9.724c-0.094,0.846,1.092,1.325,1.585,0.615
				c1.61-2.278,2.693-4.563,5.021-6.269c2.268-1.647,4.95-2.549,7.727-2.629c3.14,1.357,6.288,2.698,9.429,4.053
				c-6.993,2.248-12.548,8.073-14.161,15.31c-0.282,1.282,1.885,1.812,2.259,0.544c2.022-6.824,6.227-11.742,12.917-14.38
				c0.354-0.156,0.486-0.498,0.48-0.834c2.523,1.078,5.046,2.157,7.563,3.25c-5.518,2.546-11.244,7.441-12.325,13.512
				c-0.141,0.868,1.116,1.316,1.585,0.615c1.637-2.402,2.778-5.039,4.733-7.241c2.312-2.572,5.179-4.501,8.342-5.88
				c2.542,1.084,5.082,2.169,7.631,3.276c-7.136,4.994-13.538,12.745-14.678,21.54c-0.145,1.081,1.36,1.351,1.773,0.434
				c3.87-8.399,7.374-15.354,14.701-21.197c1.718,0.727,3.415,1.461,5.107,2.198c1.163,0.49,2.313,1.016,3.477,1.506
				c-5.108,2.901-10.761,8.216-11.282,14.055c-0.083,0.771,0.987,1.245,1.449,0.563c1.596-2.342,2.467-5.043,4.216-7.324
				c2.04-2.68,4.613-4.76,7.492-6.466c2.679,1.177,5.378,2.361,8.074,3.546c-5.184,3.204-10.287,7.909-11.507,13.475
				c-0.187,0.891,1.033,1.127,1.516,0.589c2.331-2.566,3.778-5.787,6.207-8.354c1.74-1.854,3.659-3.464,5.718-4.879
				c1.904,0.856,3.819,1.678,5.711,2.51c-4.509,2.369-9.184,7.946-9.46,11.84c-0.052,0.744,0.897,1.428,1.501,0.837
				c2.086-1.993,3.189-4.879,5.162-7.036c1.588-1.715,3.744-2.92,5.478-4.461c2.192,0.969,4.37,1.932,6.563,2.899
				c-7.114,3.671-14.238,10.809-14.386,18.771c-0.014,1.092,1.299,1.348,1.796,0.423c1.987-3.758,3.108-7.656,5.912-11.042
				c2.539-3.052,5.625-5.344,9.125-7.085c1.773,0.788,3.532,1.568,5.294,2.331c-4.414,2.679-8.577,7.239-9.007,12.132
				c-0.086,0.83,1.108,1.392,1.585,0.616c1.441-2.246,2.313-4.75,3.953-6.898c1.55-2.025,3.382-3.607,5.43-4.99
				c3.422,1.485,6.847,2.972,10.259,4.434c-9.382,1.889-20.6,10.73-20.514,20.765c0.003,1.1,1.331,1.418,1.848,0.443
				c2.321-4.414,3.512-8.696,7.175-12.374c3.852-3.857,8.44-5.979,13.682-7.257c0.283-0.067,0.475-0.209,0.587-0.4
				c2.564,1.073,5.099,2.175,7.67,3.232c-3.922,1.007-7.534,2.84-10.651,5.455c-2.754,2.302-6.692,6.029-6.824,9.801
				c-0.035,0.753,0.832,1.345,1.474,0.809c2.773-2.354,4.137-6.062,6.972-8.568c3.097-2.721,6.683-4.428,10.593-5.614
				c0.469-0.151,0.664-0.547,0.65-0.965c2.791,1.143,5.583,2.285,8.387,3.395c-13.069,2.104-23.657,15.229-26.624,28.119
				c-2.317,10.063-0.741,21.008,4.538,29.432c-2.637-1.239-5.288-2.444-7.938-3.651c-1.368-2.942-3.035-5.668-3.887-8.881
				c-0.985-3.776-0.855-7.393-0.741-11.271c0.047-1.236-1.956-1.936-2.285-0.533c-1.387,5.696-0.211,13.88,3.548,19.203
				c-2.562-1.134-5.13-2.246-7.688-3.339c-0.662-2.434-1.383-4.87-1.609-7.37c-0.264-3.005,0.492-5.712,0.629-8.639
				c0.06-1.113-1.344-1.385-1.824-0.454c-2.236,4.446-1.312,11.355,1.256,15.804c-2.58-1.08-5.152-2.138-7.732-3.219
				c-0.355-1.606-0.558-3.255-0.541-4.916c0.011-1.799,0.523-3.62,0.354-5.411c-0.061-0.553-0.955-0.822-1.258-0.292
				c-1.549,2.673-1.293,6.46-0.547,9.787c-2.852-1.184-5.713-2.354-8.574-3.523c-2.679-4.963-2.207-9.917-1.223-15.536
				c0.136-0.75-1.045-1.248-1.43-0.555c-2.579,4.569-1.859,10.396,0.383,15.169c-2.759-1.128-5.499-2.252-8.246-3.357
				c-0.183-0.737-0.303-1.49-0.381-2.246c0.066,0.025,0.136,0.052,0.203,0.078c0.081,0.052,0.14-0.102,0.046-0.118
				c-0.085-0.034-0.169-0.066-0.254-0.099c-0.047-0.588-0.089-1.193-0.04-1.819c0.083-1.832,0.776-3.465,1.111-5.237
				c0.179-0.911-1.171-1.376-1.688-0.655c-1.742,2.521-1.847,6.126-1.029,9.269c-2.741-1.122-5.492-2.27-8.233-3.392
				c-0.766-1.416-1.244-2.954-1.381-4.576c-0.16-2.161,0.887-3.949,0.923-6.015c0.007-0.526-0.638-1.033-1.105-0.586
				c-1.631,1.522-1.646,4.439-1.441,6.539c0.126,1.343,0.476,2.616,1.013,3.807c-1.758-0.724-3.494-1.456-5.246-2.195
				c-0.039-0.505-0.48-0.932-1.079-0.654c-1.044,0.517-0.353-3.589-0.314-3.888c0.178-1.265,0.36-2.547,0.539-3.811
				c0.332-2.42,0.886-4.911,0.657-7.354c-0.089-0.878-1.432-1.008-1.709-0.192c-0.758,2.157-0.827,4.503-1.065,6.783
				c-0.239,2.183-0.727,4.6-0.644,6.809c0.016,0.263,0.066,0.536,0.127,0.834c-0.153-0.059-0.323-0.125-0.47-0.202
				c-1.956-0.817-3.924-1.659-5.891-2.502c-0.927-3.93-1.296-7.877-0.849-11.958c0.539-4.771,2.601-8.619,4.056-13.074
				c0.345-1.042-0.934-1.735-1.646-0.913c-5.496,6.476-5.813,16.941-3.547,25.096c-2.54-1.084-5.081-2.167-7.62-3.253
				c-1.059-1.921-1.613-4.077-1.548-6.268c0.063-2.23,1.063-3.999,1.639-6.09c0.23-0.793-0.69-1.758-1.446-1.071
				c-3.269,3.064-2.922,8.435-1.015,12.412c-2.977-1.274-5.97-2.554-8.946-3.827c-1.003-2.115-1.552-4.388-1.478-6.752
				c0.068-2.601,1.161-4.705,1.852-7.143c0.339-1.125-0.975-1.83-1.758-0.979c-3.21,3.521-3.016,9.184-1.395,13.696
				c-2.591-1.104-5.194-2.231-7.802-3.343c-0.853-4.37-1.253-8.742-0.902-13.233c0.363-4.625,1.932-8.918,2.698-13.464
				c0.142-0.77-1.083-1.303-1.5-0.583c-4.245,7.549-4.098,17.881-2.229,26.451c-2.847-1.204-5.671-2.417-8.51-3.637
				c-0.891-2.308-1.382-4.675-1.232-7.185c0.159-2.528,1.267-4.726,1.703-7.164c0.115-0.602-0.773-1.143-1.229-0.673
				c-3.407,3.423-3.179,9.453-1.482,14.072c-2.035-0.869-4.07-1.736-6.106-2.605c-1.283-5.891-1.11-11.333,0.304-17.198
				c0.21-0.898-1.301-1.249-1.58-0.377c-1.695,5.479-1.594,11.579,0.097,17.077c-3.039-1.316-6.067-2.608-9.112-3.908
				c-4.095-6.982-3.494-13.732-1.483-21.383c0.225-0.834-0.907-1.706-1.465-0.824c-3.925,6.321-2.785,14.9,0.76,21.279
				c-2.823-1.215-5.652-2.412-8.477-3.626c-5.419-8.064-7.244-17.303-5.567-27.026c0.205-1.137-1.687-1.616-1.991-0.479
				c-2.285,8.919-0.658,18.414,4.224,26.095c-1.592-0.698-3.208-1.383-4.824-2.068c-0.04-0.252-0.127-0.483-0.289-0.722
				C85.988,385.326,80.679,375.107,83.397,362.199z"/>
			<path fill="#C49A6C" stroke="#FFFFFF" stroke-miterlimit="10" d="M249.94,430.447c1.448-4.282,3.805-8.584,6.843-12.269
				l0.461,0.376c-0.307,0.391-0.382,0.931-0.018,1.307c2.115,2.136,4.986,3.074,7.673,4.333c2.02,0.961,4.044,1.903,6.073,2.847
				c-3.762,2.207-5.864,6.764-4.429,11.302c0.069,0.224,0.154,0.413,0.238,0.604c-1.517-0.747-3.012-1.542-4.504-2.298
				c0.005-0.763-0.024-1.499,0.215-2.27c0.36-1.232,1.029-2.347,1.958-3.221c0.79-0.771-0.204-2.1-1.096-1.368
				c-1.58,1.291-3.008,3.501-3.301,5.72c-1.355-0.702-2.71-1.404-4.072-2.09c0.008-0.271,0.031-0.536,0.076-0.795
				c0.286-1.497,1.049-2.808,2.136-3.837c0.723-0.701-0.181-1.915-0.987-1.247c-1.308,1.041-2.323,2.354-2.918,3.928
				c-0.088,0.279-0.213,0.604-0.299,0.923c-1.163-0.59-2.326-1.179-3.502-1.791C250.29,430.504,250.108,430.472,249.94,430.447z"/>
			<path fill="#C49A6C" stroke="#FFFFFF" stroke-miterlimit="10" d="M257.244,418.555l-0.461-0.376
				c6.55-7.928,16.21-12.963,26.498-8.498c9.431,4.093,12.406,14.661,7.983,23.631c-2.139,4.346-6.338,8.602-11.335,9.348
				c-8.162,1.222-16.313-11.218-6.405-14.412c0.479,0.228,0.977,0.46,1.459,0.685c1.081,0.499,2.074-1.253,1.027-1.838
				c-0.131-0.069-0.278-0.146-0.406-0.217c0.019-0.6-0.4-1.192-1.17-1.079c-0.193,0.041-0.385,0.085-0.578,0.128
				c-2.215-1.213-4.416-2.42-6.637-3.615c-2.876-1.529-5.774-3.713-9.046-4.179C257.807,418.065,257.473,418.271,257.244,418.555z"
				/>
			<path fill="#C49A6C" stroke="#FFFFFF" stroke-miterlimit="10" d="M144.497,176.231c9.196-47.124,25.162-95.166,61.233-128.676
				c0.756-0.687,1.586-0.601,2.188-0.131c11.687-5.855,24.546-1.806,35.98,3.144c0.26-0.114,0.503-0.236,0.757-0.333
				c0.744-0.299,1.241,0.54,0.922,1.063c0.017,0.006,0.017,0.006,0.033,0.013c10.051,4.472,19.997,9.157,29.897,13.961
				c0.321-0.071,0.567,0.102,0.688,0.346c7.793,3.771,15.551,7.627,23.273,11.526c20.856,10.528,41.896,21.247,62.385,32.869
				c0.093,0.017,0.191,0.016,0.289,0.014c0.381,0.031,0.624,0.262,0.718,0.573c7.825,4.45,15.576,9.028,23.2,13.792
				c0.084,0.033,0.146,0.076,0.207,0.12c4.038,2.528,8.033,5.119,11.998,7.737c3.63,1.312,7.011,3.054,10.106,5.336
				c7.469,2.586,12.854,9.521,14.881,17.033c4.398,16.2-6.879,42.315-25.266,44.667c-5.839,0.753-10.258-1.708-13.176-5.664
				c-2.575-1.744-5.191-3.447-7.824-5.096c-4.422-2.756-9.398-4.844-13.514-7.973c-2.232,6.095-4.009,12.388-5.617,18.606
				c-14.618,56.745-18.228,115.642-24.039,173.747c-2.597,26.033-3.021,55.872-16.771,79.009
				c-9.787,16.477-29.902,28.885-49.499,23.65c-4.635-1.252-8.59-3.434-11.846-6.306c-26.468-9.569-52.22-22.234-78.025-33.252
				c-28.831-12.312-57.68-24.63-86.528-36.949c-1.044-0.443-1.301-1.445-1.069-2.296c-11.109-9.727-13.895-27.75-8.83-41.1
				c4.929-12.951,20.312-28.628,35.309-22.003c0.12,0.047,0.192,0.114,0.281,0.189c0.19,0.015,0.391,0.053,0.588,0.148
				c4.214,1.774,8.416,3.581,12.605,5.365c3.614-26.934,1.634-54.666,3.639-81.754C135.681,230.303,139.243,203.097,144.497,176.231
				z M208.12,50.641c-37.484,35.079-52.656,86.077-61.438,135.166c-4.689,26.22-7.899,52.723-9.59,79.306
				c-1.578,24.82,0.775,50.834-4.921,75.154c23.326,9.979,46.538,20.245,69.816,30.341c5.436,2.366,10.892,4.681,16.339,7.011
				c0.174-0.09,0.338-0.162,0.511-0.251c0.638-0.283,1.101,0.348,0.96,0.862c20.231,8.6,40.572,17.123,60.315,26.729
				c1.474,0.298,2.968,0.74,4.473,1.364c16.938,6.93,15.973,33.459-1.584,39.232c-4.66,1.546-10.443,0.438-13.934-3.057
				c-4.799-1.98-9.53-4.091-14.217-6.361c-0.225-0.029-0.423-0.124-0.583-0.266c-1.627-0.809-3.256-1.619-4.871-2.46
				c-0.096-0.057-0.159-0.141-0.248-0.214c-0.03,0.126-0.077,0.245-0.1,0.353c-2.68,11.705,0.084,25.192,9.383,32.96
				c2.316,1.155,4.628,2.327,6.901,3.543c0.388,0.209,0.589,0.503,0.67,0.849c12.327,4.667,26.897-0.031,36.813-8.143
				c22.906-18.697,23.373-54.795,26.153-81.76c2.993-28.819,5.339-57.698,8.572-86.483c3.241-28.708,7.35-57.369,13.852-85.534
				c5.182-22.482,11.473-47.278,29.414-63.236c5.07-4.523,11.555-8.339,18.387-9.119c-1.898-0.717-3.81-1.4-5.76-1.981
				c-0.196-0.056-0.359-0.139-0.5-0.233c-2.547,0.345-5.014,0.996-7.349,2.167c-3.118,1.555-5.066,4.152-7.866,6.006
				c-0.813,0.528-1.987-0.183-1.597-1.189c1.242-3.146,5.095-5.591,8.023-7.023c2.654-1.283,5.476-2.031,8.362-2.245
				c0.022-0.011,0.007-0.017,0.028-0.027c-3.612-1.951-7.222-3.922-10.824-5.909c-3.02,0.652-5.865,1.724-8.498,3.604
				c-3.686,2.628-5.55,6.062-7.761,9.889c-0.538,0.93-2.242,0.268-2.013-0.781c1.456-6.926,8.221-12.634,15.352-14.336
				c-3.135-1.726-6.277-3.475-9.404-5.22c-2.221,0.766-4.311,1.76-6.222,3.194c-2.498,1.894-3.968,4.363-6.066,6.587
				c-0.793,0.828-2.185,0.172-1.811-0.997c1.516-4.707,6.638-8.406,11.69-10.11c-3.379-1.9-6.75-3.778-10.135-5.662
				c-10.36,1.784-18.085,7.687-24.67,16.465c-0.897,1.2-3.02,0.102-2.347-1.284c4.377-9.046,13.919-15.089,23.845-16.961
				c-3.788-2.118-7.58-4.217-11.374-6.317c-2.137,0.603-4.057,1.563-5.815,3.115c-2.217,1.963-2.906,4.499-4.573,6.774
				c-0.677,0.934-1.897,0.244-1.926-0.747c-0.066-3.164,2.906-6.421,5.273-8.228c1.341-1.03,2.842-1.82,4.427-2.362
				c-2.33-1.275-4.676-2.559-7.001-3.835c-3.862,0.756-7.399,2.285-10.351,4.943c-3.234,2.92-4.391,6.354-6.405,10.024
				c-0.552,1.021-2.127,0.783-2.058-0.504c0.467-7.82,8.628-14.045,16.06-15.964c-2.25-1.226-4.493-2.411-6.751-3.621
				c-0.081,0.262-0.264,0.524-0.565,0.703c-6.001,3.533-9.925,8.03-13.633,13.846c-0.771,1.229-2.851,0.07-2.226-1.237
				c2.887-6.174,8.354-11.268,14.366-14.424c-2.352-1.266-4.71-2.515-7.076-3.747c-4.06,1.111-7.782,2.92-10.986,5.716
				c-3.223,2.847-4.762,6.21-7.18,9.605c-0.571,0.818-2.162,0.318-1.924-0.747c1.74-7.874,9.995-13.729,17.715-15.83
				c-2.35-1.226-4.696-2.451-7.075-3.649c-1.295-0.66-2.593-1.301-3.887-1.96c-3.229,1.296-6.269,2.959-9.006,5.113
				c-3.357,2.638-5.572,5.916-8.356,9.05c-0.743,0.85-2.345,0.13-1.827-1.003c3.014-6.752,10.016-11.603,16.975-14.275
				c-3.852-1.947-7.718-3.859-11.601-5.778c-6.354,3.533-10.037,8.477-13.376,14.907c-0.663,1.252-2.483,0.584-2.08-0.808
				c1.968-6.53,7.31-11.909,13.269-15.185c-4.053-1.985-8.131-3.96-12.196-5.911c-1.164,0.625-2.305,1.34-3.359,2.186
				c-1.879,1.506-3.169,3.516-4.913,5.132c-0.673,0.622-1.755-0.23-1.42-1.042c1.318-3.095,4.39-5.55,7.662-7.261
				c-2.081-1.004-4.191-1.979-6.289-2.99c-5.936,3.618-9.016,8.521-12.387,14.625c-0.498,0.884-2.095,0.245-1.873-0.728
				c1.483-6.347,6.509-11.613,12.12-14.905c-2.682-1.276-5.362-2.552-8.061-3.836c-2.513,1.163-4.84,2.613-6.911,4.515
				c-3.04,2.78-4.51,6.113-6.84,9.385c-0.478,0.677-1.782,0.25-1.602-0.622c1.386-6.346,7.241-11.426,13.31-14.227
				c-3.361-1.598-6.87-3.314-10.492-4.898c-9.413,5.504-15.322,13.506-20.084,23.599c-0.563,1.193-2.219,0.511-1.875-0.728
				c2.924-10.258,10.753-18.554,19.968-23.701c-3.092-1.28-6.271-2.435-9.46-3.261c-3.813,1.991-7.44,4.21-10.752,6.984
				c-3.179,2.686-5.597,6.081-8.72,8.772c-0.676,0.581-1.818-0.217-1.437-1.049c3.224-6.788,10.927-12.132,17.972-15.377
				C220.69,47.56,214.276,47.716,208.12,50.641z M114.985,335.792c-14.986-3.935-28.889,13.492-31.588,26.407
				c-2.718,12.908,2.591,23.127,10.076,33.092c0.162,0.238,0.25,0.47,0.289,0.722c1.616,0.686,3.232,1.37,4.824,2.068
				c-4.881-7.681-6.509-17.176-4.224-26.095c0.305-1.137,2.196-0.657,1.991,0.479c-1.677,9.724,0.148,18.962,5.567,27.026
				c2.824,1.214,5.653,2.411,8.477,3.626c-3.544-6.379-4.685-14.958-0.76-21.279c0.558-0.882,1.69-0.01,1.465,0.824
				c-2.01,7.65-2.611,14.4,1.483,21.383c3.045,1.3,6.073,2.592,9.112,3.908c-1.691-5.498-1.792-11.599-0.097-17.077
				c0.279-0.872,1.791-0.521,1.58,0.377c-1.414,5.865-1.587,11.308-0.304,17.198c2.036,0.869,4.071,1.736,6.106,2.605
				c-1.696-4.619-1.924-10.649,1.482-14.072c0.457-0.47,1.345,0.071,1.229,0.673c-0.437,2.438-1.544,4.636-1.703,7.164
				c-0.15,2.51,0.341,4.877,1.232,7.185c2.839,1.22,5.663,2.433,8.51,3.637c-1.87-8.57-2.016-18.902,2.229-26.451
				c0.417-0.72,1.642-0.187,1.5,0.583c-0.766,4.546-2.334,8.839-2.698,13.464c-0.352,4.491,0.049,8.863,0.902,13.233
				c2.607,1.111,5.211,2.238,7.802,3.343c-1.622-4.513-1.815-10.176,1.395-13.696c0.783-0.852,2.097-0.146,1.758,0.979
				c-0.691,2.438-1.783,4.542-1.852,7.143c-0.074,2.364,0.475,4.637,1.478,6.752c2.976,1.273,5.969,2.553,8.946,3.827
				c-1.907-3.978-2.254-9.348,1.015-12.412c0.756-0.687,1.676,0.278,1.446,1.071c-0.576,2.091-1.576,3.859-1.639,6.09
				c-0.065,2.19,0.489,4.347,1.548,6.268c2.54,1.086,5.08,2.169,7.62,3.253c-2.266-8.154-1.949-18.62,3.547-25.096
				c0.711-0.822,1.991-0.129,1.646,0.913c-1.455,4.455-3.517,8.303-4.056,13.074c-0.448,4.081-0.078,8.028,0.849,11.958
				c1.967,0.843,3.936,1.685,5.891,2.502c0.147,0.077,0.317,0.144,0.47,0.202c-0.061-0.298-0.111-0.571-0.127-0.834
				c-0.083-2.209,0.404-4.626,0.644-6.809c0.239-2.28,0.307-4.626,1.065-6.783c0.277-0.815,1.62-0.686,1.709,0.192
				c0.229,2.442-0.325,4.934-0.657,7.354c-0.179,1.264-0.36,2.546-0.539,3.811c-0.039,0.299-0.729,4.404,0.314,3.888
				c0.599-0.277,1.041,0.149,1.079,0.654c1.752,0.739,3.488,1.472,5.246,2.195c-0.537-1.19-0.886-2.464-1.013-3.807
				c-0.204-2.1-0.19-5.017,1.441-6.539c0.467-0.447,1.113,0.06,1.105,0.586c-0.037,2.065-1.083,3.854-0.923,6.015
				c0.137,1.622,0.615,3.16,1.381,4.576c2.741,1.122,5.492,2.27,8.233,3.392c-0.817-3.143-0.713-6.748,1.029-9.269
				c0.517-0.721,1.867-0.256,1.688,0.655c-0.335,1.772-1.028,3.405-1.111,5.237c-0.049,0.626-0.007,1.231,0.04,1.819
				c0.084,0.032,0.169,0.064,0.254,0.099c0.093,0.017,0.035,0.17-0.046,0.118c-0.067-0.026-0.136-0.053-0.203-0.078
				c0.079,0.756,0.198,1.509,0.381,2.246c2.747,1.105,5.487,2.229,8.246,3.357c-2.243-4.772-2.962-10.6-0.383-15.169
				c0.385-0.693,1.566-0.195,1.43,0.555c-0.983,5.619-1.456,10.573,1.223,15.536c2.861,1.169,5.722,2.34,8.574,3.523
				c-0.746-3.327-1.002-7.114,0.547-9.787c0.303-0.53,1.197-0.261,1.258,0.292c0.168,1.791-0.343,3.612-0.354,5.411
				c-0.017,1.661,0.186,3.31,0.541,4.916c2.58,1.081,5.152,2.139,7.732,3.219c-2.567-4.448-3.492-11.357-1.256-15.804
				c0.479-0.931,1.883-0.659,1.824,0.454c-0.137,2.927-0.893,5.634-0.629,8.639c0.227,2.5,0.947,4.937,1.609,7.37
				c2.558,1.093,5.125,2.205,7.688,3.339c-3.759-5.323-4.935-13.507-3.548-19.203c0.329-1.402,2.332-0.703,2.285,0.533
				c-0.114,3.878-0.244,7.494,0.741,11.271c0.852,3.213,2.52,5.938,3.887,8.881c2.649,1.207,5.301,2.412,7.938,3.651
				c-5.279-8.424-6.855-19.368-4.538-29.432c2.967-12.891,13.555-26.016,26.624-28.119c-2.804-1.109-5.596-2.252-8.387-3.395
				c0.014,0.418-0.182,0.813-0.65,0.965c-3.91,1.187-7.496,2.894-10.593,5.614c-2.835,2.507-4.198,6.214-6.972,8.568
				c-0.642,0.536-1.509-0.056-1.474-0.809c0.132-3.771,4.07-7.499,6.824-9.801c3.117-2.615,6.729-4.448,10.651-5.455
				c-2.571-1.058-5.105-2.159-7.67-3.232c-0.112,0.191-0.304,0.333-0.587,0.4c-5.241,1.278-9.83,3.399-13.682,7.257
				c-3.663,3.678-4.854,7.96-7.175,12.374c-0.518,0.975-1.845,0.656-1.848-0.443c-0.085-10.034,11.132-18.876,20.514-20.765
				c-3.412-1.462-6.837-2.948-10.259-4.434c-2.047,1.383-3.879,2.965-5.43,4.99c-1.639,2.148-2.511,4.652-3.953,6.898
				c-0.478,0.775-1.672,0.214-1.585-0.616c0.43-4.893,4.593-9.453,9.007-12.132c-1.762-0.763-3.521-1.543-5.294-2.331
				c-3.499,1.741-6.585,4.033-9.125,7.085c-2.804,3.386-3.924,7.284-5.912,11.042c-0.498,0.925-1.811,0.669-1.796-0.423
				c0.147-7.963,7.271-15.101,14.386-18.771c-2.193-0.968-4.371-1.931-6.563-2.899c-1.734,1.541-3.889,2.746-5.478,4.461
				c-1.973,2.157-3.076,5.043-5.162,7.036c-0.604,0.591-1.553-0.093-1.501-0.837c0.276-3.894,4.951-9.471,9.46-11.84
				c-1.892-0.832-3.808-1.653-5.711-2.51c-2.059,1.415-3.979,3.024-5.718,4.879c-2.428,2.567-3.876,5.788-6.207,8.354
				c-0.482,0.538-1.703,0.302-1.516-0.589c1.22-5.565,6.323-10.271,11.507-13.475c-2.696-1.185-5.396-2.369-8.074-3.546
				c-2.879,1.706-5.452,3.786-7.492,6.466c-1.749,2.281-2.62,4.982-4.216,7.324c-0.462,0.683-1.532,0.209-1.449-0.563
				c0.521-5.839,6.174-11.153,11.282-14.055c-1.164-0.49-2.314-1.016-3.477-1.506c-1.692-0.737-3.389-1.472-5.107-2.198
				c-7.328,5.843-10.831,12.798-14.701,21.197c-0.414,0.917-1.918,0.647-1.773-0.434c1.14-8.795,7.542-16.546,14.678-21.54
				c-2.55-1.107-5.09-2.192-7.631-3.276c-3.163,1.379-6.03,3.308-8.342,5.88c-1.955,2.202-3.096,4.839-4.733,7.241
				c-0.469,0.701-1.726,0.253-1.585-0.615c1.081-6.07,6.807-10.966,12.325-13.512c-2.517-1.093-5.041-2.172-7.563-3.25
				c0.006,0.336-0.125,0.678-0.48,0.834c-6.69,2.638-10.895,7.556-12.917,14.38c-0.374,1.268-2.541,0.738-2.259-0.544
				c1.612-7.236,7.168-13.062,14.161-15.31c-3.142-1.354-6.289-2.695-9.429-4.053c-2.777,0.08-5.459,0.981-7.727,2.629
				c-2.329,1.705-3.411,3.99-5.021,6.269c-0.493,0.71-1.679,0.23-1.585-0.615c0.636-5.226,5.856-8.671,10.971-9.724
				c-3.123-1.351-6.263-2.706-9.404-4.063c-5.138,4.852-8.81,10.267-11.577,16.94c-0.57,1.365-2.608,0.557-2.129-0.827
				c2.299-6.58,6.429-12.468,11.712-16.984c-2.488-1.064-4.981-2.171-7.471-3.234c-2.996,1.758-5.688,3.793-8.007,6.479
				c-2.225,2.55-3.603,5.544-5.435,8.344c-0.612,0.92-1.82,0.039-1.584-0.87c1.621-6.194,7.208-11.596,12.929-14.864
				c-3.066-1.349-6.122-2.67-9.171-4.011c-3.401,0.679-6.53,2.071-9.222,4.36c-3.061,2.577-4.348,5.844-6.484,9.072
				c-0.437,0.673-1.443,0.185-1.396-0.543c0.546-6.963,7.7-12.208,14.451-14.037c-3.571-1.563-7.133-3.144-10.68-4.716
				c-6.949,3.047-11.775,7.547-16.56,13.809c-0.63,0.814-2.086,0.072-1.628-0.905c2.93-6.336,9.01-11.388,15.605-14.083
				C115.281,336.945,114.99,336.383,114.985,335.792z M256.783,418.179c-3.038,3.685-5.395,7.986-6.843,12.269
				c0.168,0.024,0.35,0.057,0.548,0.153c1.176,0.612,2.339,1.201,3.502,1.791c0.086-0.319,0.211-0.644,0.299-0.923
				c0.595-1.574,1.61-2.887,2.918-3.928c0.807-0.668,1.71,0.546,0.987,1.247c-1.087,1.029-1.85,2.34-2.136,3.837
				c-0.045,0.259-0.068,0.523-0.076,0.795c1.362,0.686,2.717,1.388,4.072,2.09c0.293-2.219,1.721-4.429,3.301-5.72
				c0.892-0.731,1.886,0.597,1.096,1.368c-0.929,0.874-1.598,1.988-1.958,3.221c-0.239,0.771-0.21,1.507-0.215,2.27
				c1.492,0.756,2.987,1.551,4.504,2.298c-0.084-0.19-0.169-0.38-0.238-0.604c-1.436-4.538,0.667-9.095,4.429-11.302
				c-2.029-0.943-4.054-1.886-6.073-2.847c-2.687-1.259-5.558-2.197-7.673-4.333c-0.364-0.376-0.289-0.916,0.018-1.307
				c0.229-0.284,0.563-0.489,0.93-0.423c3.271,0.466,6.17,2.649,9.046,4.179c2.221,1.195,4.422,2.402,6.637,3.615
				c0.193-0.043,0.385-0.087,0.578-0.128c0.77-0.113,1.188,0.479,1.17,1.079c0.128,0.071,0.275,0.147,0.406,0.217
				c1.047,0.585,0.054,2.337-1.027,1.838c-0.482-0.225-0.98-0.457-1.459-0.685c-9.908,3.194-1.757,15.634,6.405,14.412
				c4.997-0.746,9.196-5.002,11.335-9.348c4.423-8.97,1.447-19.538-7.983-23.631C272.993,405.216,263.333,410.251,256.783,418.179z
				 M375.27,157.793c-4.641,6.239-8.128,13.2-10.922,20.449c1.39,0.362,2.782,0.865,4.168,1.441c-0.378-1.5-0.477-3.068-0.303-4.627
				c0.23-2.008,0.771-4.918,2.621-6.043c0.565-0.35,1.53-0.053,1.392,0.756c-0.338,1.83-1.623,3.273-2.031,5.135
				c-0.422,1.895-0.236,3.791,0.24,5.642c1.928,0.944,3.829,2.055,5.693,3.269c-1.869-3.824-2.126-9.474,1.125-12.348
				c0.841-0.752,1.948,0.285,1.649,1.208c-0.641,2.006-1.72,3.568-1.876,5.743c-0.155,2.214,0.411,4.395,1.334,6.362
				c0.101,0.196,0.085,0.386,0.002,0.549c1.216,0.865,2.422,1.745,3.591,2.668c-2.657-8.051-1.125-18.262,5.111-23.41
				c1.548-1.262,3.462-2.205,5.477-2.699c-4.16-2.615-8.53-4.841-13.09-7.296c-0.372-0.203-0.596-0.585-0.682-0.971
				C377.485,155.007,376.296,156.408,375.27,157.793z M380.146,152.195c6.306,1.291,12.109,4.878,16.968,9.334
				c2.891,0.278,5.626,1.575,7.39,4.202c3.369,5.013,1.044,12.211-4.565,14.131c-0.706,0.255-1.353,0.104-1.845-0.244
				c-1.683-0.516-3.872-2.054-5.121-2.675c-2.384-1.181-4.787-2.369-7.138-3.634c-1.071,3.115-1.276,6.721-0.887,9.756
				c1.262,10.136,9.603,15.12,18.597,9.985c13.313-7.618,21.308-28.615,13.857-42.508
				C408.2,133.378,390.898,141.524,380.146,152.195z M387.694,169.677c-0.209,0.291-0.387,0.595-0.563,0.899
				c2.608,1.365,5.183,2.816,7.758,4.267c0.24,0.131,1.679,0.827,2.981,1.608c0.132-0.087,0.28-0.167,0.462-0.233
				c6.834-2.348,2.75-9.404-1.979-10.809C393.54,164.572,388.976,167.997,387.694,169.677z"/>
			<path fill="#C49A6C" stroke="#FFFFFF" stroke-miterlimit="10" d="M146.682,185.806c8.782-49.089,23.954-100.086,61.438-135.166
				c6.156-2.925,12.571-3.081,18.945-1.823c-7.045,3.246-14.749,8.589-17.972,15.377c-0.382,0.832,0.76,1.629,1.437,1.049
				c3.124-2.691,5.541-6.086,8.72-8.772c3.313-2.773,6.939-4.993,10.752-6.984c3.188,0.827,6.368,1.981,9.46,3.261
				c-9.215,5.147-17.044,13.443-19.968,23.701c-0.344,1.239,1.312,1.921,1.875,0.728c4.762-10.093,10.671-18.095,20.084-23.599
				c3.622,1.584,7.131,3.3,10.492,4.898c-6.068,2.8-11.923,7.881-13.31,14.227c-0.18,0.873,1.124,1.299,1.602,0.622
				c2.331-3.271,3.8-6.604,6.84-9.385c2.071-1.902,4.398-3.352,6.911-4.515c2.698,1.284,5.379,2.56,8.061,3.836
				c-5.611,3.292-10.637,8.558-12.12,14.905c-0.222,0.973,1.375,1.612,1.873,0.728c3.371-6.104,6.451-11.007,12.387-14.625
				c2.098,1.011,4.208,1.986,6.289,2.99c-3.272,1.711-6.344,4.166-7.662,7.261c-0.335,0.811,0.747,1.664,1.42,1.042
				c1.744-1.616,3.034-3.626,4.913-5.132c1.055-0.846,2.195-1.561,3.359-2.186c4.065,1.951,8.144,3.926,12.196,5.911
				c-5.959,3.275-11.301,8.654-13.269,15.185c-0.403,1.392,1.417,2.061,2.08,0.808c3.339-6.431,7.022-11.374,13.376-14.907
				c3.883,1.918,7.749,3.831,11.601,5.778c-6.959,2.672-13.961,7.522-16.975,14.275c-0.518,1.133,1.084,1.853,1.827,1.003
				c2.784-3.135,4.999-6.413,8.356-9.05c2.737-2.154,5.777-3.817,9.006-5.113c1.294,0.659,2.592,1.3,3.887,1.96
				c2.379,1.198,4.726,2.424,7.075,3.649c-7.72,2.101-15.975,7.956-17.715,15.83c-0.238,1.065,1.353,1.565,1.924,0.747
				c2.418-3.395,3.957-6.758,7.18-9.605c3.204-2.796,6.927-4.605,10.986-5.716c2.366,1.231,4.725,2.48,7.076,3.747
				c-6.012,3.157-11.479,8.25-14.366,14.424c-0.625,1.307,1.454,2.467,2.226,1.237c3.708-5.816,7.632-10.313,13.633-13.846
				c0.302-0.178,0.484-0.44,0.565-0.703c2.258,1.21,4.501,2.396,6.751,3.621c-7.432,1.919-15.593,8.144-16.06,15.964
				c-0.069,1.287,1.506,1.525,2.058,0.504c2.015-3.67,3.171-7.104,6.405-10.024c2.951-2.658,6.488-4.187,10.351-4.943
				c2.325,1.276,4.671,2.56,7.001,3.835c-1.585,0.542-3.086,1.333-4.427,2.362c-2.367,1.806-5.34,5.063-5.273,8.228
				c0.028,0.991,1.249,1.681,1.926,0.747c1.667-2.275,2.356-4.811,4.573-6.774c1.759-1.553,3.679-2.513,5.815-3.115
				c3.794,2.101,7.586,4.2,11.374,6.317c-9.926,1.872-19.468,7.915-23.845,16.961c-0.673,1.386,1.449,2.484,2.347,1.284
				c6.585-8.779,14.31-14.682,24.67-16.465c3.385,1.884,6.756,3.762,10.135,5.662c-5.053,1.704-10.175,5.403-11.69,10.11
				c-0.374,1.168,1.018,1.825,1.811,0.997c2.099-2.225,3.568-4.694,6.066-6.587c1.911-1.434,4.001-2.428,6.222-3.194
				c3.127,1.745,6.27,3.494,9.404,5.22c-7.131,1.702-13.896,7.411-15.352,14.336c-0.229,1.049,1.475,1.71,2.013,0.781
				c2.211-3.828,4.075-7.261,7.761-9.889c2.633-1.88,5.479-2.952,8.498-3.604c3.603,1.987,7.212,3.958,10.824,5.909
				c-0.021,0.011-0.006,0.017-0.028,0.027c-2.887,0.213-5.708,0.962-8.362,2.245c-2.929,1.432-6.781,3.877-8.023,7.023
				c-0.391,1.006,0.784,1.717,1.597,1.189c2.8-1.854,4.748-4.451,7.866-6.006c2.335-1.17,4.802-1.822,7.349-2.167
				c0.141,0.094,0.304,0.177,0.5,0.233c1.95,0.582,3.861,1.265,5.76,1.981c-6.832,0.78-13.316,4.596-18.387,9.119
				c-17.941,15.958-24.232,40.754-29.414,63.236c-6.502,28.165-10.61,56.826-13.852,85.534c-3.233,28.785-5.579,57.664-8.572,86.483
				c-2.78,26.965-3.247,63.063-26.153,81.76c-9.915,8.111-24.485,12.81-36.813,8.143c-0.081-0.346-0.282-0.64-0.67-0.849
				c-2.273-1.216-4.585-2.388-6.901-3.543c-9.299-7.768-12.063-21.255-9.383-32.96c0.022-0.107,0.069-0.227,0.1-0.353
				c0.089,0.073,0.152,0.157,0.248,0.214c1.615,0.841,3.244,1.651,4.871,2.46c0.16,0.142,0.358,0.236,0.583,0.266
				c4.687,2.271,9.418,4.381,14.217,6.361c3.49,3.494,9.273,4.603,13.934,3.057c17.557-5.773,18.522-32.303,1.584-39.232
				c-1.505-0.624-2.999-1.066-4.473-1.364c-19.743-9.606-40.084-18.13-60.315-26.729c0.141-0.515-0.322-1.146-0.96-0.862
				c-0.173,0.089-0.337,0.161-0.511,0.251c-5.447-2.33-10.903-4.645-16.339-7.011c-23.279-10.096-46.491-20.362-69.816-30.341
				c5.696-24.32,3.343-50.334,4.921-75.154C138.782,238.529,141.992,212.026,146.682,185.806z"/>
			<path fill="#C49A6C" stroke="#FFFFFF" stroke-miterlimit="10" d="M364.348,178.242c2.794-7.25,6.281-14.21,10.922-20.449
				c1.026-1.385,2.216-2.786,3.5-4.17c0.086,0.385,0.31,0.768,0.682,0.971c4.56,2.456,8.93,4.682,13.09,7.296
				c-2.015,0.494-3.929,1.437-5.477,2.699c-6.236,5.148-7.769,15.359-5.111,23.41c-1.169-0.924-2.375-1.804-3.591-2.668
				c0.083-0.164,0.099-0.354-0.002-0.549c-0.923-1.967-1.489-4.148-1.334-6.362c0.156-2.175,1.235-3.737,1.876-5.743
				c0.299-0.924-0.809-1.961-1.649-1.208c-3.251,2.875-2.994,8.524-1.125,12.348c-1.864-1.214-3.766-2.325-5.693-3.269
				c-0.477-1.852-0.662-3.748-0.24-5.642c0.408-1.862,1.693-3.305,2.031-5.135c0.139-0.809-0.826-1.106-1.392-0.756
				c-1.851,1.125-2.391,4.035-2.621,6.043c-0.174,1.559-0.075,3.127,0.303,4.627C367.13,179.107,365.737,178.604,364.348,178.242z"
				/>
			<path fill="#C49A6C" stroke="#FFFFFF" stroke-miterlimit="10" d="M397.114,161.529c-4.858-4.456-10.662-8.043-16.968-9.334
				c10.752-10.671,28.054-18.817,37.256-1.654c7.45,13.893-0.545,34.89-13.857,42.508c-8.994,5.135-17.335,0.151-18.597-9.985
				c-0.39-3.035-0.185-6.641,0.887-9.756c2.351,1.266,4.754,2.454,7.138,3.634c1.249,0.622,3.438,2.159,5.121,2.675
				c0.492,0.348,1.139,0.499,1.845,0.244c5.609-1.92,7.935-9.118,4.565-14.131C402.74,163.104,400.005,161.808,397.114,161.529z"/>
			<path fill="#C49A6C" stroke="#FFFFFF" stroke-miterlimit="10" d="M387.131,170.576c0.177-0.304,0.354-0.608,0.563-0.899
				c1.281-1.68,5.846-5.105,8.659-4.268c4.729,1.405,8.813,8.461,1.979,10.809c-0.182,0.066-0.33,0.146-0.462,0.233
				c-1.303-0.781-2.741-1.478-2.981-1.608C392.313,173.393,389.739,171.941,387.131,170.576z"/>
		</g>
	</g>
</g>
<g id="Layer_1">
	<g>
		
			<ellipse fill="#A7A9AC" stroke="#FFFFFF" stroke-width="6" stroke-miterlimit="10" cx="248.509" cy="291.603" rx="168.644" ry="61.455"/>
		<g>
			<path fill="#A7A9AC" stroke="#FFFFFF" stroke-width="6" stroke-miterlimit="10" d="M401.051,275.229
				c0,84.246-305.084,84.246-305.084,0c0-84.25,68.296-152.545,152.542-152.545C332.756,122.685,401.051,190.98,401.051,275.229z"/>
			
				<ellipse fill="#A7A9AC" stroke="#FFFFFF" stroke-width="6" stroke-miterlimit="10" cx="248.509" cy="122.685" rx="8.475" ry="4.661"/>
		</g>
	</g>
</g>
</svg>
